<svg xmlns="http://www.w3.org/2000/svg" width="32" height="32" fill="none">
  <style>
    path {
      fill: #000;
    }
    @media (prefers-color-scheme: dark) {
      path {
        fill: #fff;
      }
    }
  </style>
  <path
    fill="currentColor"
    fillRule="evenodd"
    d="M27.46 24.26a17.23 17.23 0 0 0 1.58-5.76c.18-1.7.16-3.54-.04-5.82-.1-1.24-.29-2.36-.6-3.44-.34-1.2-.8-2.29-1.4-3.34a9.1 9.1 0 0 0-2.97-3.07 12.2 12.2 0 0 0-3.96-1.61 18.63 18.63 0 0 0-8.43.16c-.99.25-1.9.6-2.71 1.02-.76.4-1.46.89-2.07 1.45-1.08 1-1.9 2.21-2.53 3.75-.54 1.2-.9 2.48-1.1 3.9-.17 1.22-.22 2.52-.17 4.1a24.3 24.3 0 0 0 .29 4.38c.27 1.65.74 3.1 1.44 4.48a9.41 9.41 0 0 0 2.4 3.02c.95.79 2.07 1.43 3.33 1.88a16.69 16.69 0 0 0 5.3.84c1.02 0 2.08-.08 3.15-.23 2.11-.29 3.93-.95 5.38-1.98a9.75 9.75 0 0 0 3.1-3.73Zm3.81-12.74c.22 1.2.33 2.51.33 3.86 0 1.8-.15 3.39-.47 4.8a15.4 15.4 0 0 1-1.66 4.39c-.54.97-1.24 1.86-2.09 2.64a13.3 13.3 0 0 1-2.9 2c-1.1.54-2.3.98-3.58 1.27-1.3.31-2.68.48-4.11.5-.21.02-.41.02-.62.02a19.1 19.1 0 0 1-8.14-1.61A12.67 12.67 0 0 1 5 27.42a11.16 11.16 0 0 1-2.15-2.58 15.32 15.32 0 0 1-2.12-6.93 26.01 26.01 0 0 1 0-5.24c.21-1.85.66-3.52 1.38-5.1a11.43 11.43 0 0 1 6.38-6.2 16.1 16.1 0 0 1 3.63-1 24.1 24.1 0 0 1 7.72-.1c1.1.18 2.14.45 3.11.82 1.6.59 3 1.4 4.17 2.45 1.22 1.1 2.2 2.42 2.89 3.96.57 1.24 1 2.58 1.26 4.02Zm-19.32-.14c-.02 0-.03 1.88-.03 4.15v4.11h.64l-.03-3.61c0-1.99-.03-3.68-.05-3.75-.02-.12-.02-.13.05-.12.08 0 .2.28 1.74 3.89l.1.22a84.48 84.48 0 0 1 .85 1.97l.59 1.38h.59l.78-1.83 1.74-4.07.4-.93c.18-.44.3-.64.34-.64.05 0 .05.04.03.3a51.6 51.6 0 0 0-.11 4.45c0 1.44 0 2.65.02 2.68.02.05.1.06.36.06h.33V15.5l-.02-4.14h-.99l-.33.77-1.49 3.49-.31.74-.23.56-.14.36a11.9 11.9 0 0 1-.66 1.55c-.03.01-.11-.18-.2-.42-.22-.57-.45-1.13-2.14-5.07l-.85-1.97-.47-.01c-.27 0-.49 0-.5.02Z"
    clipRule="evenodd"
  />
</svg>
